<?xml version="1.0" encoding="UTF-8"?>
<svg xmlns="http://www.w3.org/2000/svg" xmlns:xlink="http://www.w3.org/1999/xlink" width="160px" height="px" viewBox="0 0 160 252" version="1.1">
<g id="surface1">
<path style=" stroke:none;fill-rule:nonzero;fill:rgb(74.901961%,60.784314%,88.627451%);fill-opacity:1;" d="M 10.324219 0 L 149.675781 0 C 155.378906 0 160 4.605469 160 10.285156 L 160 241.714844 C 160 247.394531 155.378906 252 149.675781 252 L 10.324219 252 C 4.621094 252 0 247.394531 0 241.714844 L 0 10.285156 C 0 4.605469 4.621094 0 10.324219 0 Z M 10.324219 0 "/>
<path style="fill:none;stroke-width:1;stroke-linecap:butt;stroke-linejoin:miter;stroke:rgb(99.607843%,99.607843%,99.607843%);stroke-opacity:1;stroke-miterlimit:4;" d="M 9.999316 6.498698 L 114.000684 6.498698 C 115.932129 6.498698 117.500293 8.066406 117.500293 9.998698 L 117.500293 186.001302 C 117.500293 187.933594 115.932129 189.501302 114.000684 189.501302 L 9.999316 189.501302 C 8.067871 189.501302 6.499707 187.933594 6.499707 186.001302 L 6.499707 9.998698 C 6.499707 8.066406 8.067871 6.498698 9.999316 6.498698 Z M 9.999316 6.498698 " transform="matrix(1.290323,0,0,1.285714,0,0)"/>
<path style=" stroke:none;fill-rule:nonzero;fill:rgb(99.607843%,99.607843%,99.607843%);fill-opacity:1;" d="M 30.105469 14.925781 L 45.238281 18.933594 L 50.863281 62.027344 L 51.542969 62.207031 L 77.886719 27.578125 L 93.023438 31.585938 L 77.601562 89.421875 L 65.699219 86.269531 L 75.734375 48.625 L 75.253906 48.5 L 50.269531 81.882812 L 42.164062 79.738281 L 37.144531 38.257812 L 36.660156 38.128906 L 26.585938 75.917969 L 14.679688 72.765625 Z M 30.105469 14.925781 "/>
<path style=" stroke:none;fill-rule:nonzero;fill:rgb(99.607843%,99.607843%,99.607843%);fill-opacity:1;" d="M 8.117188 119.023438 L 20.847656 109.933594 L 57.796875 133.015625 L 58.367188 132.605469 L 48.304688 90.324219 L 61.03125 81.234375 L 96.019531 129.875 L 86.007812 137.027344 L 63.238281 105.367188 L 62.832031 105.65625 L 72.800781 146.097656 L 65.984375 150.96875 L 30.664062 128.449219 L 30.257812 128.738281 L 53.117188 160.515625 L 43.105469 167.667969 Z M 8.117188 119.023438 "/>
<path style=" stroke:none;fill-rule:nonzero;fill:rgb(99.607843%,99.607843%,99.607843%);fill-opacity:1;" d="M 15.5 218.175781 L 45.574219 166.375 L 66.085938 178.199219 C 70.011719 180.460938 72.957031 183.09375 74.917969 186.089844 C 76.90625 189.085938 77.890625 192.273438 77.867188 195.660156 C 77.871094 199.035156 76.878906 202.4375 74.894531 205.859375 C 72.894531 209.300781 70.433594 211.828125 67.503906 213.449219 C 64.585938 215.054688 61.332031 215.699219 57.742188 215.382812 C 54.167969 215.082031 50.386719 213.777344 46.394531 211.476562 L 32.660156 203.558594 L 37.769531 194.757812 L 49.726562 201.648438 C 51.824219 202.859375 53.734375 203.574219 55.453125 203.800781 C 57.175781 204.03125 58.707031 203.765625 60.050781 203.007812 C 61.410156 202.261719 62.582031 201.035156 63.570312 199.332031 C 64.570312 197.613281 65.066406 195.964844 65.058594 194.382812 C 65.066406 192.8125 64.542969 191.320312 63.492188 189.902344 C 62.464844 188.480469 60.894531 187.15625 58.78125 185.9375 L 51.367188 181.664062 L 26.492188 224.511719 Z M 57.261719 210.785156 L 56.496094 241.808594 L 44.363281 234.8125 L 45.40625 203.953125 Z M 57.261719 210.785156 "/>
<path style=" stroke:none;fill-rule:nonzero;fill:rgb(99.607843%,99.607843%,99.607843%);fill-opacity:1;" d="M 99.773438 115.113281 L 88.78125 56.28125 L 128.566406 48.902344 L 130.484375 59.15625 L 103.179688 64.222656 L 105.800781 78.238281 L 131.054688 73.554688 L 132.972656 83.808594 L 107.714844 88.496094 L 110.339844 102.542969 L 137.757812 97.457031 L 139.675781 107.710938 Z M 99.773438 115.113281 "/>
<path style=" stroke:none;fill-rule:nonzero;fill:rgb(99.607843%,99.607843%,99.607843%);fill-opacity:1;" d="M 147.265625 157.59375 C 145.144531 163.769531 142.164062 168.617188 138.328125 172.148438 C 134.507812 175.683594 130.1875 177.90625 125.371094 178.816406 C 120.578125 179.714844 115.675781 179.308594 110.664062 177.597656 C 105.613281 175.875 101.476562 173.1875 98.246094 169.53125 C 95.019531 165.875 92.984375 161.484375 92.140625 156.359375 C 91.300781 151.230469 91.9375 145.589844 94.050781 139.4375 C 96.171875 133.261719 99.144531 128.40625 102.964844 124.871094 C 106.78125 121.335938 111.085938 119.117188 115.878906 118.222656 C 120.679688 117.304688 125.605469 117.710938 130.652344 119.433594 C 135.664062 121.144531 139.785156 123.824219 143.015625 127.480469 C 146.265625 131.125 148.316406 135.507812 149.15625 140.632812 C 150.015625 145.765625 149.386719 151.417969 147.265625 157.59375 Z M 135.085938 153.4375 C 136.460938 149.4375 137.019531 145.859375 136.757812 142.703125 C 136.519531 139.554688 135.5625 136.898438 133.886719 134.742188 C 132.207031 132.585938 129.917969 131.011719 127.015625 130.019531 C 124.109375 129.027344 121.332031 128.875 118.679688 129.554688 C 116.027344 130.238281 113.628906 131.746094 111.484375 134.078125 C 109.355469 136.421875 107.605469 139.59375 106.230469 143.59375 C 104.855469 147.589844 104.289062 151.167969 104.53125 154.316406 C 104.789062 157.472656 105.753906 160.128906 107.433594 162.285156 C 109.109375 164.445312 111.398438 166.019531 114.300781 167.007812 C 117.207031 168 119.984375 168.15625 122.636719 167.472656 C 125.289062 166.792969 127.675781 165.28125 129.804688 162.941406 C 131.949219 160.605469 133.710938 157.4375 135.085938 153.4375 Z M 135.085938 153.4375 "/>
<path style=" stroke:none;fill-rule:nonzero;fill:rgb(99.607843%,99.607843%,99.607843%);fill-opacity:1;" d="M 80.300781 179.371094 L 94.480469 180.503906 L 106.0625 207.285156 L 106.648438 207.332031 L 122.367188 182.730469 L 136.542969 183.863281 L 111.605469 220.683594 L 109.90625 241.773438 L 97.335938 240.769531 L 99.035156 219.679688 Z M 80.300781 179.371094 "/>
<path style=" stroke:none;fill-rule:nonzero;fill:rgb(99.607843%,99.607843%,99.607843%);fill-opacity:1;" d="M 100.007812 15.664062 L 101.964844 15.664062 L 104.03125 20.6875 L 104.121094 20.6875 L 106.1875 15.664062 L 108.144531 15.664062 L 108.144531 23.144531 L 106.605469 23.144531 L 106.605469 18.273438 L 106.542969 18.273438 L 104.601562 23.105469 L 103.550781 23.105469 L 101.609375 18.253906 L 101.546875 18.253906 L 101.546875 23.144531 L 100.007812 23.144531 Z M 100.007812 15.664062 "/>
<path style=" stroke:none;fill-rule:nonzero;fill:rgb(99.607843%,99.607843%,99.607843%);fill-opacity:1;" d="M 109.453125 23.144531 L 109.453125 15.664062 L 114.511719 15.664062 L 114.511719 16.964844 L 111.039062 16.964844 L 111.039062 18.75 L 114.25 18.75 L 114.25 20.054688 L 111.039062 20.054688 L 111.039062 21.839844 L 114.527344 21.839844 L 114.527344 23.144531 Z M 109.453125 23.144531 "/>
<path style=" stroke:none;fill-rule:nonzero;fill:rgb(99.607843%,99.607843%,99.607843%);fill-opacity:1;" d="M 115.773438 15.664062 L 117.730469 15.664062 L 119.796875 20.6875 L 119.886719 20.6875 L 121.953125 15.664062 L 123.910156 15.664062 L 123.910156 23.144531 L 122.371094 23.144531 L 122.371094 18.273438 L 122.308594 18.273438 L 120.367188 23.105469 L 119.316406 23.105469 L 117.375 18.253906 L 117.3125 18.253906 L 117.3125 23.144531 L 115.773438 23.144531 Z M 115.773438 15.664062 "/>
<path style=" stroke:none;fill-rule:nonzero;fill:rgb(99.607843%,99.607843%,99.607843%);fill-opacity:1;" d="M 132.117188 19.402344 C 132.117188 20.21875 131.960938 20.914062 131.652344 21.484375 C 131.34375 22.058594 130.925781 22.492188 130.390625 22.796875 C 129.859375 23.09375 129.265625 23.246094 128.601562 23.246094 C 127.933594 23.246094 127.335938 23.09375 126.804688 22.792969 C 126.277344 22.488281 125.855469 22.054688 125.550781 21.480469 C 125.242188 20.910156 125.085938 20.214844 125.085938 19.402344 C 125.085938 18.585938 125.242188 17.894531 125.550781 17.320312 C 125.855469 16.75 126.277344 16.3125 126.804688 16.011719 C 127.335938 15.710938 127.933594 15.558594 128.601562 15.558594 C 129.265625 15.558594 129.859375 15.710938 130.390625 16.011719 C 130.925781 16.3125 131.34375 16.75 131.652344 17.320312 C 131.960938 17.894531 132.117188 18.585938 132.117188 19.402344 Z M 130.507812 19.402344 C 130.507812 18.875 130.429688 18.429688 130.269531 18.066406 C 130.113281 17.703125 129.894531 17.425781 129.605469 17.242188 C 129.320312 17.054688 128.984375 16.960938 128.601562 16.960938 C 128.21875 16.960938 127.882812 17.054688 127.597656 17.242188 C 127.3125 17.425781 127.089844 17.703125 126.929688 18.066406 C 126.773438 18.429688 126.695312 18.875 126.695312 19.402344 C 126.695312 19.929688 126.773438 20.375 126.929688 20.738281 C 127.089844 21.101562 127.3125 21.378906 127.597656 21.566406 C 127.882812 21.753906 128.21875 21.847656 128.601562 21.847656 C 128.984375 21.847656 129.320312 21.753906 129.605469 21.566406 C 129.894531 21.378906 130.113281 21.101562 130.269531 20.738281 C 130.429688 20.375 130.507812 19.929688 130.507812 19.402344 Z M 130.507812 19.402344 "/>
<path style=" stroke:none;fill-rule:nonzero;fill:rgb(99.607843%,99.607843%,99.607843%);fill-opacity:1;" d="M 133.292969 23.144531 L 133.292969 15.664062 L 136.253906 15.664062 C 136.820312 15.664062 137.304688 15.761719 137.707031 15.964844 C 138.109375 16.164062 138.417969 16.449219 138.628906 16.816406 C 138.839844 17.183594 138.945312 17.613281 138.945312 18.105469 C 138.945312 18.601562 138.839844 19.03125 138.625 19.386719 C 138.410156 19.742188 138.097656 20.015625 137.6875 20.207031 C 137.28125 20.394531 136.792969 20.492188 136.214844 20.492188 L 134.230469 20.492188 L 134.230469 19.21875 L 135.957031 19.21875 C 136.261719 19.21875 136.511719 19.179688 136.714844 19.097656 C 136.914062 19.011719 137.0625 18.890625 137.160156 18.722656 C 137.261719 18.558594 137.3125 18.351562 137.3125 18.105469 C 137.3125 17.859375 137.261719 17.648438 137.160156 17.476562 C 137.0625 17.308594 136.914062 17.179688 136.710938 17.089844 C 136.507812 17 136.257812 16.957031 135.949219 16.957031 L 134.882812 16.957031 L 134.882812 23.144531 Z M 137.347656 19.738281 L 139.214844 23.144531 L 137.460938 23.144531 L 135.636719 19.738281 Z M 137.347656 19.738281 "/>
<path style=" stroke:none;fill-rule:nonzero;fill:rgb(99.607843%,99.607843%,99.607843%);fill-opacity:1;" d="M 139.316406 15.664062 L 141.09375 15.664062 L 142.804688 18.882812 L 142.878906 18.882812 L 144.589844 15.664062 L 146.367188 15.664062 L 143.628906 20.5 L 143.628906 23.144531 L 142.054688 23.144531 L 142.054688 20.5 Z M 139.316406 15.664062 "/>
<path style="fill:none;stroke-width:1;stroke-linecap:butt;stroke-linejoin:miter;stroke:rgb(99.607843%,99.607843%,99.607843%);stroke-opacity:1;stroke-miterlimit:4;" d="M 9.999316 6.498698 L 114.000684 6.498698 C 115.932129 6.498698 117.500293 8.066406 117.500293 9.998698 L 117.500293 186.001302 C 117.500293 187.933594 115.932129 189.501302 114.000684 189.501302 L 9.999316 189.501302 C 8.067871 189.501302 6.499707 187.933594 6.499707 186.001302 L 6.499707 9.998698 C 6.499707 8.066406 8.067871 6.498698 9.999316 6.498698 Z M 9.999316 6.498698 " transform="matrix(1.290323,0,0,1.285714,0,0)"/>
</g>
</svg>
