<?xml version="1.0" encoding="UTF-8"?>
<svg xmlns="http://www.w3.org/2000/svg" xmlns:xlink="http://www.w3.org/1999/xlink" width="160px" height="px" viewBox="0 0 160 252" version="1.1">
<g id="surface1">
<path style=" stroke:none;fill-rule:nonzero;fill:rgb(100%,100%,100%);fill-opacity:1;" d="M 10.324219 0 L 149.675781 0 C 155.378906 0 160 4.605469 160 10.285156 L 160 241.714844 C 160 247.394531 155.378906 252 149.675781 252 L 10.324219 252 C 4.621094 252 0 247.394531 0 241.714844 L 0 10.285156 C 0 4.605469 4.621094 0 10.324219 0 Z M 10.324219 0 "/>
<path style="fill:none;stroke-width:1;stroke-linecap:butt;stroke-linejoin:miter;stroke:rgb(99.607843%,99.607843%,99.607843%);stroke-opacity:1;stroke-miterlimit:4;" d="M 9.999316 6.498698 L 114.000684 6.498698 C 115.932129 6.498698 117.500293 8.066406 117.500293 9.998698 L 117.500293 186.001302 C 117.500293 187.933594 115.932129 189.501302 114.000684 189.501302 L 9.999316 189.501302 C 8.067871 189.501302 6.499707 187.933594 6.499707 186.001302 L 6.499707 9.998698 C 6.499707 8.066406 8.067871 6.498698 9.999316 6.498698 Z M 9.999316 6.498698 " transform="matrix(1.290323,0,0,1.285714,0,0)"/>
<path style="fill:none;stroke-width:1;stroke-linecap:butt;stroke-linejoin:miter;stroke:rgb(0%,0%,0%);stroke-opacity:1;stroke-miterlimit:4;" d="M 9.999316 6.498698 L 114.000684 6.498698 C 115.932129 6.498698 117.500293 8.066406 117.500293 9.998698 L 117.500293 186.001302 C 117.500293 187.933594 115.932129 189.501302 114.000684 189.501302 L 9.999316 189.501302 C 8.067871 189.501302 6.499707 187.933594 6.499707 186.001302 L 6.499707 9.998698 C 6.499707 8.066406 8.067871 6.498698 9.999316 6.498698 Z M 9.999316 6.498698 " transform="matrix(1.290323,0,0,1.285714,0,0)"/>
<path style=" stroke:none;fill-rule:nonzero;fill:rgb(3.137255%,62.352941%,45.098039%);fill-opacity:1;" d="M 38.710938 86.144531 L 121.289062 86.144531 L 121.289062 168.429688 L 38.710938 168.429688 Z M 38.710938 86.144531 "/>
</g>
</svg>
